<svg width="25" height="25" viewBox="0 0 25 25" fill="none" xmlns="http://www.w3.org/2000/svg">
<path fill-rule="evenodd" clip-rule="evenodd" d="M3.96491 6.46492C4.90255 5.52756 6.17409 5.00098 7.49991 5.00098C8.82573 5.00098 10.0973 5.52756 11.0349 6.46492L12.4999 7.92867L13.9649 6.46492C14.4261 5.98737 14.9779 5.60646 15.5879 5.34441C16.1979 5.08237 16.854 4.94443 17.5179 4.93867C18.1818 4.9329 18.8402 5.0594 19.4547 5.31081C20.0692 5.56221 20.6274 5.93348 21.0969 6.40294C21.5663 6.87241 21.9376 7.43067 22.189 8.04515C22.4404 8.65963 22.5669 9.31803 22.5612 9.98192C22.5554 10.6458 22.4175 11.3019 22.1554 11.9119C21.8934 12.522 21.5125 13.0737 21.0349 13.5349L12.4999 22.0712L3.96491 13.5349C3.02755 12.5973 2.50098 11.3257 2.50098 9.99992C2.50098 8.6741 3.02755 7.40256 3.96491 6.46492V6.46492Z" stroke="black" stroke-width="1.5" stroke-linejoin="round"/>
</svg>
