<svg width="20" height="20" viewBox="0 0 20 20" fill="none" xmlns="http://www.w3.org/2000/svg">
<path fill-rule="evenodd" clip-rule="evenodd" d="M3.17212 5.17208C3.92223 4.4222 4.93947 4.00093 6.00012 4.00093C7.06078 4.00093 8.07801 4.4222 8.82812 5.17208L10.0001 6.34308L11.1721 5.17208C11.5411 4.79004 11.9825 4.48531 12.4705 4.27567C12.9585 4.06604 13.4834 3.95569 14.0145 3.95108C14.5456 3.94646 15.0723 4.04767 15.5639 4.24879C16.0555 4.44992 16.5021 4.74693 16.8777 5.1225C17.2533 5.49807 17.5503 5.94468 17.7514 6.43626C17.9525 6.92785 18.0537 7.45457 18.0491 7.98568C18.0445 8.5168 17.9342 9.04168 17.7245 9.5297C17.5149 10.0177 17.2102 10.4591 16.8281 10.8281L10.0001 17.6571L3.17212 10.8281C2.42224 10.078 2.00098 9.06074 2.00098 8.00008C2.00098 6.93942 2.42224 5.92219 3.17212 5.17208Z" fill="#E51644" stroke="#E51644" stroke-linejoin="round"/>
</svg>
