<svg width="132" height="132" viewBox="0 0 132 132" fill="none" xmlns="http://www.w3.org/2000/svg">
<path d="M50.4868 10.2603C57.085 -2.1849 74.915 -2.18491 81.5132 10.2603L92.9257 31.7859C94.5713 34.8898 97.1102 37.4287 100.214 39.0743L121.74 50.4868C134.185 57.085 134.185 74.915 121.74 81.5132L100.214 92.9257C97.1102 94.5713 94.5713 97.1102 92.9257 100.214L81.5132 121.74C74.915 134.185 57.085 134.185 50.4868 121.74L39.0743 100.214C37.4287 97.1102 34.8898 94.5713 31.7859 92.9257L10.2603 81.5132C-2.1849 74.915 -2.18491 57.085 10.2603 50.4868L31.7859 39.0743C34.8898 37.4287 37.4287 34.8898 39.0743 31.7859L50.4868 10.2603Z" fill="#F7B9C7"/>
</svg>
