<svg width="12" height="12" viewBox="0 0 12 12" fill="none" xmlns="http://www.w3.org/2000/svg">
<path d="M5.74755 1.35691C5.85083 1.14763 6.14924 1.14763 6.25253 1.35691L7.58953 4.06597C7.63054 4.14907 7.70982 4.20667 7.80153 4.22L10.7912 4.65441C11.0221 4.68797 11.1143 4.97178 10.9472 5.13468L8.78389 7.24339C8.71753 7.30808 8.68725 7.40128 8.70291 7.49261L9.2136 10.4702C9.25305 10.7002 9.01163 10.8756 8.80507 10.767L6.13106 9.36118C6.04903 9.31805 5.95104 9.31805 5.86901 9.36118L3.19501 10.767C2.98844 10.8756 2.74702 10.7002 2.78647 10.4702L3.29716 7.49261C3.31282 7.40128 3.28254 7.30808 3.21618 7.24339L1.05287 5.13468C0.885752 4.97178 0.977968 4.68797 1.20891 4.65441L4.19854 4.22C4.29025 4.20667 4.36953 4.14907 4.41054 4.06597L5.74755 1.35691Z" stroke="black" stroke-width="1.2" stroke-linejoin="round"/>
</svg>
