<svg width="13" height="12" viewBox="0 0 13 12" fill="none" xmlns="http://www.w3.org/2000/svg">
<path d="M6.24755 1.35691C6.35083 1.14763 6.64924 1.14763 6.75253 1.35691L8.08953 4.06597C8.13054 4.14907 8.20982 4.20667 8.30153 4.22L11.2912 4.65441C11.5221 4.68797 11.6143 4.97178 11.4472 5.13468L9.28389 7.24339C9.21753 7.30808 9.18725 7.40128 9.20291 7.49261L9.7136 10.4702C9.75305 10.7002 9.51163 10.8756 9.30507 10.767L6.63106 9.36118C6.54903 9.31805 6.45104 9.31805 6.36901 9.36118L3.69501 10.767C3.48844 10.8756 3.24702 10.7002 3.28647 10.4702L3.79716 7.49261C3.81282 7.40128 3.78254 7.30808 3.71618 7.24339L1.55287 5.13468C1.38575 4.97178 1.47797 4.68797 1.70891 4.65441L4.69854 4.22C4.79025 4.20667 4.86953 4.14907 4.91054 4.06597L6.24755 1.35691Z" stroke="white" stroke-width="1.2" stroke-linejoin="round"/>
</svg>
